HIERARCHY
ROOT Hips
{
	OFFSET 0.00000 0.00000 0.00000
	CHANNELS 6 Xposition Yposition Zposition Zrotation Yrotation Xrotation 
	JOINT LHipJoint
	{
		OFFSET 0 0 0
		CHANNELS 3 Zrotation Yrotation Xrotation
		JOINT LeftHip
		{
			OFFSET 1.92105 -1.55469 0.57908
			CHANNELS 3 Zrotation Yrotation Xrotation
			JOINT LeftKnee
			{
				OFFSET 2.22936 -6.12512 0.00000
				CHANNELS 3 Zrotation Yrotation Xrotation
				JOINT LeftAnkle
				{
					OFFSET 2.39380 -6.57693 0.00000
					CHANNELS 3 Zrotation Yrotation Xrotation
					JOINT LeftToe
					{
						OFFSET 0.18279 -0.50221 1.84518
						CHANNELS 3 Zrotation Yrotation Xrotation
						End Site
						{
							OFFSET 0.00000 -0.00000 0.96438
						}
					}
				}
			}
		}
	}
	JOINT RHipJoint
	{
		OFFSET 0 0 0
		CHANNELS 3 Zrotation Yrotation Xrotation
		JOINT RightHip
		{
			OFFSET -1.89358 -1.55469 0.57908
			CHANNELS 3 Zrotation Yrotation Xrotation
			JOINT RightKnee
			{
				OFFSET -2.33387 -6.41225 0.00000
				CHANNELS 3 Zrotation Yrotation Xrotation
				JOINT RightAnkle
				{
					OFFSET -2.38966 -6.56553 0.00000
					CHANNELS 3 Zrotation Yrotation Xrotation
					JOINT RightToe
					{
						OFFSET -0.18298 -0.50273 1.96046
						CHANNELS 3 Zrotation Yrotation Xrotation
						End Site
						{
							OFFSET -0.00000 -0.00000 1.01970
						}
					}
				}
			}
		}
	}
	JOINT lowerback
	{
		OFFSET 0 0 0
		CHANNELS 3 Zrotation Yrotation Xrotation
		JOINT Chest
		{
			OFFSET 0.03719 2.01033 -0.18318
			CHANNELS 3 Zrotation Yrotation Xrotation
			JOINT Chest2
			{
				OFFSET 0.00561 1.99379 0.09854
				CHANNELS 3 Zrotation Yrotation Xrotation
				JOINT lowerneck
				{
					OFFSET 0 0 0
					CHANNELS 3 Zrotation Yrotation Xrotation
					JOINT Neck
					{
						OFFSET -0.16458 1.70299 0.07694
						CHANNELS 3 Zrotation Yrotation Xrotation
						JOINT Head
						{
							OFFSET 0.23603 1.70483 -0.17696
							CHANNELS 3 Zrotation Yrotation Xrotation
							End Site
							{
								OFFSET 0.09691 1.73862 -0.07054
							}
						}
					}
				}
				JOINT LeftCollar
				{
					OFFSET 0 0 0
					CHANNELS 3 Zrotation Yrotation Xrotation
					JOINT LeftShoulder
					{
						OFFSET 2.95817 1.35820 -0.02124
CHANNELS 3 Zrotation Xrotation Yrotation
						JOINT LeftElbow
						{
OFFSET 0 -4.848340 0.000000
CHANNELS 3 Zrotation Xrotation Yrotation
							JOINT LeftWrist
							{
OFFSET 0 -2.997130 0.000000
CHANNELS 3 Zrotation Xrotation Yrotation
								JOINT lhand
								{
									OFFSET 0 0 0
CHANNELS 3 Zrotation Xrotation Yrotation
									JOINT LFingers
									{
OFFSET 0 -0.693990 0.000000
CHANNELS 3 Zrotation Xrotation Yrotation
										End Site
										{
OFFSET 0 -0.559510 0.000000
										}
									}
								}
								JOINT LThumb
								{
OFFSET 0 0.000000 0.000000
CHANNELS 3 Zrotation Xrotation Yrotation
									End Site
									{
OFFSET 0 -0.568050 0.568050
									}
								}
							}
						}
					}
				}
				JOINT RightCollar
				{
					OFFSET 0 0 0
					CHANNELS 3 Zrotation Yrotation Xrotation
					JOINT RightShoulder
					{
						OFFSET -3.02016 1.39593 0.16199
CHANNELS 3 Zrotation Xrotation Yrotation
						JOINT RightElbow
						{
OFFSET 0 -4.934570 0.000000
CHANNELS 3 Zrotation Xrotation Yrotation
							JOINT RightWrist
							{
OFFSET 0 -3.344300 0.000000
CHANNELS 3 Zrotation Xrotation Yrotation
								JOINT rhand
								{
									OFFSET 0 0 0
CHANNELS 3 Zrotation Xrotation Yrotation
									JOINT RFingers
									{
OFFSET 0 -0.677360 0.000000
CHANNELS 3 Zrotation Xrotation Yrotation
										End Site
										{
OFFSET 0 -0.546110 0.000000
										}
									}
								}
								JOINT RThumb
								{
OFFSET 0 0.000000 0.000000
CHANNELS 3 Zrotation Xrotation Yrotation
									End Site
									{
OFFSET 0 -0.554450 0.554450
									}
								}
							}
						}
					}
				}
			}
		}
	}
}
MOTION
Frames: 11
Frame Time: 0.008333333333333333
5.080413 19.967021 0.834326 -177.051212 -87.494135 211.647130 0.000000 0.000000 0.000000 -26.226337 -9.368445 -8.389165 3.242396 11.074038 32.533922 0.451605 11.870207 13.608235 0.802907 5.450407 15.257577 0.000000 0.000000 0.000000 18.505282 3.297202 -15.984701 -9.758724 -17.271690 58.678659 0.078388 -6.484621 2.030416 -3.729715 -11.406855 34.111742 1.351475 -0.195248 3.814159 -0.776677 -0.232884 -2.959182 -1.542965 -0.188126 -5.211707 -11.769231 2.166020 5.855828 9.752823 -1.632690 33.560065 5.413342 -2.003695 9.771656 0.000000 0.000000 0.000000 157.753379 -44.072307 103.312303 37.879686 -46.762241 16.877895 18.412453 40.468029 -24.517519 0.000000 0.000000 0.000000 -7.125000 0.000000 0.000000 -11.855329 55.260507 3.020352 0.000000 0.000000 0.000000 -153.298445 -44.482258 -102.877044 -33.194993 -43.479317 -13.556057 -30.039695 -5.467521 -34.546098 0.000000 0.000000 0.000000 7.125000 0.000000 0.000000 1.529024 -8.503149 1.738583
5.310982 20.163779 0.854373 -173.659164 -87.452711 208.455190 0.000000 0.000000 0.000000 -25.996860 -10.542434 -7.802066 2.792553 10.349013 30.116966 0.224525 10.461681 10.433675 2.672005 -8.069815 -23.935000 0.000000 0.000000 0.000000 18.940767 3.915417 -15.783190 -9.442177 -17.083622 57.606513 0.056273 -6.970683 3.387750 -1.260636 -7.117334 20.063384 1.320746 -0.208025 4.826205 -0.692275 -0.229174 -2.655453 -1.437839 -0.180335 -5.470865 -11.355910 2.050571 6.011668 9.288921 -1.611688 33.027683 5.148062 -1.955941 9.542156 0.000000 0.000000 0.000000 157.344474 -44.422665 102.149182 38.313525 -47.038006 17.194781 21.909264 46.280940 -28.724073 0.000000 0.000000 0.000000 -7.125000 0.000000 0.000000 -10.382095 60.287208 3.830652 0.000000 0.000000 0.000000 -153.182791 -44.374465 -102.900336 -33.357059 -43.602514 -13.667773 -30.355821 -5.650016 -34.994711 0.000000 0.000000 0.000000 7.125000 0.000000 0.000000 1.458176 -9.061211 1.670081
5.551263 20.349818 0.874698 -173.690182 -86.950274 207.388000 0.000000 0.000000 0.000000 -26.359112 -11.172308 -6.418546 2.523899 9.880600 28.591506 0.248199 10.338741 10.715640 0.464984 -0.932714 -2.520826 0.000000 0.000000 0.000000 19.077527 4.278175 -14.347692 -8.988959 -16.799612 56.050506 0.058138 -7.985151 4.275516 -1.492998 -7.709124 21.838928 0.951025 -0.115270 7.370944 -0.843564 -0.112828 -1.951015 -1.401528 -0.109513 -6.179821 -11.998962 2.387347 4.782487 10.414427 -1.299990 33.635732 5.736536 -1.770115 9.936797 0.000000 0.000000 0.000000 157.148440 -44.480646 101.127710 39.224069 -47.602823 17.864242 24.169452 49.529698 -31.279641 0.000000 0.000000 0.000000 -7.125000 0.000000 0.000000 -9.309788 63.406297 4.177294 0.000000 0.000000 0.000000 -153.681992 -44.161021 -103.960944 -33.174930 -43.463662 -13.542354 -30.088936 -5.019390 -35.207555 0.000000 0.000000 0.000000 7.125000 0.000000 0.000000 1.648927 -9.203382 1.892147
5.721171 20.542207 0.864117 -150.533988 -87.418594 185.117042 0.000000 0.000000 0.000000 -24.589346 -13.033292 -7.203663 2.370383 9.598162 27.685208 0.090426 9.642170 8.045211 2.105593 -6.199636 -18.034141 0.000000 0.000000 0.000000 20.770430 5.299972 -14.178976 -8.389576 -16.396812 53.951475 0.111689 -9.270910 4.240468 -1.439774 -7.574389 21.434310 1.592199 -0.195773 7.408362 -0.647897 -0.146443 -1.723238 -1.553540 -0.141730 -5.964583 -9.718851 1.640844 5.540343 8.369865 -1.775853 32.309359 4.494007 -1.855478 9.368595 0.000000 0.000000 0.000000 157.793054 -43.975210 102.061325 39.698245 -47.890060 18.215057 22.721393 45.623428 -28.305648 0.000000 0.000000 0.000000 -7.125000 0.000000 0.000000 -9.170140 60.029000 3.377790 0.000000 0.000000 0.000000 -153.509099 -43.996201 -104.871055 -33.079939 -43.391310 -13.476990 -30.494074 -4.867973 -36.021566 0.000000 0.000000 0.000000 7.125000 0.000000 0.000000 1.619479 -10.164948 1.880389
5.886370 20.722719 0.855720 -144.409008 -87.585386 179.887434 0.000000 0.000000 0.000000 -23.720407 -14.781124 -8.382281 2.296796 9.458558 27.240543 -0.044291 9.133564 5.546435 2.479067 -9.799323 -28.329727 0.000000 0.000000 0.000000 21.604592 5.846530 -14.589964 -7.789710 -15.960854 51.799059 0.110607 -9.781039 4.763259 -1.168146 -6.860102 19.301799 1.362878 -0.244149 7.442920 -0.447364 -0.218935 -1.809561 -1.205374 -0.166841 -6.075627 -10.428394 1.851330 6.420234 8.907542 -1.660074 31.805422 4.800443 -1.844550 9.016028 0.000000 0.000000 0.000000 158.631640 -44.175655 103.884018 39.547214 -47.799295 18.103093 20.905677 41.896450 -24.712981 0.000000 0.000000 0.000000 -7.125000 0.000000 0.000000 -9.353744 55.962576 2.533350 0.000000 0.000000 0.000000 -152.799952 -44.382989 -104.083809 -33.714041 -43.871731 -13.914499 -31.490144 -6.508407 -36.991905 0.000000 0.000000 0.000000 7.125000 0.000000 0.000000 1.329627 -11.470576 1.566556
6.065184 20.882848 0.854291 -119.931157 -87.448526 154.847977 0.000000 0.000000 0.000000 -22.440633 -15.422003 -8.251864 2.205385 9.281098 26.678923 -0.064018 8.349834 4.458875 2.399418 -9.651401 -27.856078 0.000000 0.000000 0.000000 23.309360 6.668792 -13.454263 -7.311561 -15.588127 50.041944 0.135395 -10.192929 4.644909 -1.072114 -6.581799 18.482216 2.101999 -0.370442 9.070361 -0.021482 -0.253613 -1.587394 -1.168341 -0.207818 -6.774384 -11.187830 2.034124 7.422876 9.294801 -1.587415 31.366671 5.061453 -1.881721 8.674240 0.000000 0.000000 0.000000 158.693133 -44.424672 104.163653 39.135186 -47.548843 17.798547 21.419581 41.720099 -23.383237 0.000000 0.000000 0.000000 -7.125000 0.000000 0.000000 -8.259684 54.703414 1.980417 0.000000 0.000000 0.000000 -152.891696 -44.726303 -104.132376 -33.726929 -43.881411 -13.923397 -32.426173 -6.630277 -36.750164 0.000000 0.000000 0.000000 7.125000 0.000000 0.000000 0.781104 -11.514745 0.921769
6.219260 21.057392 0.867725 -142.480492 -87.142843 179.320795 0.000000 0.000000 0.000000 -22.705699 -17.293739 -11.002441 2.178298 9.227927 26.510910 -0.101412 8.431502 3.609915 2.410425 -9.673212 -27.924811 0.000000 0.000000 0.000000 22.127797 8.745528 -15.665448 -6.986897 -15.320301 48.823739 0.082833 -9.738779 5.292041 -1.420015 -7.534455 21.309503 0.981168 -0.140881 8.379823 -0.371904 -0.101819 -2.011329 -0.925013 -0.098982 -6.820490 -15.249751 3.545727 5.417584 14.659707 -0.815817 33.590138 7.984269 -1.600547 9.629381 0.000000 0.000000 0.000000 158.007362 -44.645050 102.583245 40.373939 -48.281495 18.720460 22.359021 41.929408 -23.895368 0.000000 0.000000 0.000000 -7.125000 0.000000 0.000000 -7.482373 55.420613 1.922968 0.000000 0.000000 0.000000 -152.690816 -44.798980 -103.956859 -33.916020 -44.022388 -14.054691 -30.843573 -4.027608 -34.223136 0.000000 0.000000 0.000000 7.125000 0.000000 0.000000 1.024230 -8.402327 1.162962
6.369282 21.231369 0.886429 -141.970673 -86.072983 181.716057 0.000000 0.000000 0.000000 -21.118004 -19.181891 -15.400012 2.235815 9.340798 26.867415 -0.156801 8.766432 2.412101 2.042999 -8.945403 -25.631478 0.000000 0.000000 0.000000 21.901734 11.920129 -18.841977 -6.648920 -15.028433 47.532726 0.047428 -9.396658 5.704324 -1.570721 -7.907431 22.433564 0.848563 0.229683 6.906808 -0.064466 0.380582 -2.699579 -0.591912 0.146845 -6.694957 -16.615992 3.773740 5.624460 15.200701 -0.526624 33.110749 8.424788 -1.558533 9.346621 0.000000 0.000000 0.000000 158.523534 -44.571526 103.918894 39.124221 -47.542393 17.790353 24.019995 44.081810 -24.485076 0.000000 0.000000 0.000000 -7.125000 0.000000 0.000000 -5.951164 56.382199 1.662421 0.000000 0.000000 0.000000 -153.330489 -44.782481 -104.290093 -33.878069 -43.994131 -14.028282 -31.517855 -4.031096 -34.751028 0.000000 0.000000 0.000000 7.125000 0.000000 0.000000 0.782874 -9.156981 0.896167
6.524134 21.386154 0.916257 -121.613244 -85.981740 161.372740 0.000000 0.000000 0.000000 -19.217083 -20.061501 -16.828128 2.333340 9.528120 27.461874 -0.144935 8.071494 1.809472 2.304696 -9.452168 -27.237455 0.000000 0.000000 0.000000 23.515458 12.491049 -19.044459 -6.241822 -14.657661 45.942876 0.004277 -8.639076 5.975836 -1.910912 -8.672396 24.779364 2.340509 0.076441 8.413029 0.305270 0.387926 -2.971373 -1.052493 0.078695 -7.851804 -14.226736 3.065016 8.731116 11.703932 -0.864704 30.672949 6.486777 -1.712579 8.080868 0.000000 0.000000 0.000000 158.728631 -45.237297 104.935418 38.781100 -47.329132 17.538276 23.219970 43.030812 -22.704685 0.000000 0.000000 0.000000 -7.125000 0.000000 0.000000 -6.141497 54.354235 1.416650 0.000000 0.000000 0.000000 -153.339465 -45.270541 -104.285804 -33.646723 -43.817894 -13.869033 -32.692958 -4.313202 -33.611063 0.000000 0.000000 0.000000 7.125000 0.000000 0.000000 -0.112654 -8.318839 -0.124604
6.643896 21.531169 0.931220 -124.806406 -86.619930 164.844280 0.000000 0.000000 0.000000 -19.368056 -20.434583 -18.580209 2.405677 9.664239 27.896238 -0.109458 7.068836 1.643256 2.777069 -10.325057 -30.035937 0.000000 0.000000 0.000000 22.998508 12.524737 -19.968929 -5.860443 -14.291161 44.417923 -0.046098 -7.750525 6.376411 -2.316378 -9.493660 27.354010 2.097826 -0.146838 9.020347 0.137103 0.067274 -3.046583 -1.046294 -0.075334 -8.296500 -11.151670 1.873844 12.029832 7.505200 -1.561789 27.437689 4.335464 -1.964054 6.590209 0.000000 0.000000 0.000000 158.671271 -45.556359 104.734115 39.175178 -47.573476 17.828035 23.447488 43.020656 -22.701673 0.000000 0.000000 0.000000 -7.125000 0.000000 0.000000 -5.903470 54.395935 1.367465 0.000000 0.000000 0.000000 -154.842732 -45.529390 -106.046913 -32.590238 -43.012429 -13.141838 -31.635642 -2.077502 -32.481653 0.000000 0.000000 0.000000 7.125000 0.000000 0.000000 0.208879 -6.807346 0.232178
6.747598 21.661036 0.950837 -128.406506 -87.074472 168.747361 0.000000 0.000000 0.000000 -19.390956 -20.696664 -20.275661 2.439427 9.726854 28.096582 -0.068991 6.000130 1.863328 3.433183 -11.354646 -33.498310 0.000000 0.000000 0.000000 22.561942 13.032760 -20.875992 -5.536803 -13.963144 43.091694 -0.068374 -6.820431 6.324472 -2.681357 -9.985013 29.080422 1.826173 -0.287810 9.669041 0.204332 -0.133710 -3.155482 -0.788019 -0.161515 -8.797762 -9.018906 0.822676 14.290622 4.431132 -2.266300 24.937522 2.913786 -2.218809 5.488340 0.000000 0.000000 0.000000 158.494213 -45.930357 104.896196 39.031960 -47.485782 17.722344 24.300893 44.034641 -22.877457 0.000000 0.000000 0.000000 -7.125000 0.000000 0.000000 -5.066603 54.759636 1.193084 0.000000 0.000000 0.000000 -154.719699 -45.863427 -105.925978 -32.537305 -42.971317 -13.105609 -31.013665 -2.257972 -33.751630 0.000000 0.000000 0.000000 7.125000 0.000000 0.000000 0.827518 -7.959349 0.934263
